<?xml version="1.0" encoding="UTF-8"?>
<svg xmlns="http://www.w3.org/2000/svg" xmlns:xlink="http://www.w3.org/1999/xlink" width="20pt" height="20pt" viewBox="0 0 20 20" version="1.1">
<g id="surface1">
<path style=" stroke:none;fill-rule:nonzero;fill:rgb(0%,0%,0%);fill-opacity:1;" d="M 17.523438 6.707031 L 15.855469 6.707031 L 15.855469 5.582031 C 16.25 5.535156 16.546875 5.207031 16.550781 4.8125 L 16.550781 4.183594 L 16.925781 4.183594 C 17.257812 4.183594 17.566406 4.007812 17.734375 3.722656 C 17.796875 3.601562 17.753906 3.457031 17.636719 3.390625 C 17.519531 3.324219 17.371094 3.359375 17.296875 3.472656 C 17.21875 3.601562 17.078125 3.683594 16.925781 3.683594 L 12.265625 3.683594 C 12.128906 3.6875 12.023438 3.800781 12.023438 3.933594 C 12.023438 4.070312 12.128906 4.179688 12.265625 4.1875 L 12.828125 4.1875 L 12.828125 4.8125 C 12.828125 5.242188 13.179688 5.585938 13.609375 5.585938 L 15.347656 5.585938 L 15.347656 16.761719 L 14.03125 16.761719 L 14.03125 11.039062 C 14.035156 10.949219 13.988281 10.859375 13.90625 10.8125 C 13.828125 10.765625 13.726562 10.765625 13.644531 10.8125 C 13.566406 10.859375 13.519531 10.949219 13.523438 11.039062 L 13.523438 16.773438 C 13.140625 16.832031 12.863281 17.15625 12.859375 17.535156 L 12.859375 19.480469 L 12.316406 19.480469 C 12.179688 19.484375 12.074219 19.597656 12.074219 19.730469 C 12.074219 19.867188 12.179688 19.976562 12.316406 19.984375 L 17.199219 19.984375 C 17.292969 19.988281 17.378906 19.941406 17.425781 19.859375 C 17.476562 19.78125 17.476562 19.683594 17.425781 19.601562 C 17.378906 19.523438 17.292969 19.476562 17.199219 19.480469 L 16.515625 19.480469 L 16.515625 17.535156 C 16.515625 17.15625 16.234375 16.832031 15.855469 16.773438 L 15.855469 8.566406 L 16.105469 8.566406 C 16.578125 8.566406 17.015625 8.316406 17.257812 7.914062 L 17.742188 7.085938 C 17.789062 7.007812 17.789062 6.914062 17.742188 6.835938 C 17.699219 6.757812 17.613281 6.707031 17.523438 6.707031 Z M 13.335938 4.8125 L 13.335938 4.183594 L 16.039062 4.183594 L 16.039062 4.8125 C 16.039062 4.960938 15.917969 5.082031 15.769531 5.082031 L 13.609375 5.082031 C 13.457031 5.082031 13.335938 4.960938 13.335938 4.8125 Z M 16.007812 17.535156 L 16.007812 19.480469 L 13.367188 19.480469 L 13.367188 17.535156 C 13.371094 17.386719 13.492188 17.265625 13.640625 17.265625 L 15.738281 17.265625 C 15.886719 17.265625 16.007812 17.386719 16.007812 17.535156 Z M 16.816406 7.65625 C 16.667969 7.910156 16.398438 8.0625 16.105469 8.0625 L 15.855469 8.0625 L 15.855469 7.210938 L 17.082031 7.210938 Z M 16.816406 7.65625 "/>
<path style=" stroke:none;fill-rule:nonzero;fill:rgb(0%,0%,0%);fill-opacity:1;" d="M 13.777344 10.226562 C 13.917969 10.226562 14.03125 10.113281 14.03125 9.976562 L 14.03125 6.371094 C 14.023438 6.238281 13.914062 6.132812 13.777344 6.132812 C 13.640625 6.132812 13.527344 6.238281 13.523438 6.371094 L 13.523438 6.707031 L 12.375 6.707031 C 12.242188 6.710938 12.132812 6.824219 12.132812 6.957031 C 12.132812 7.09375 12.242188 7.203125 12.375 7.210938 L 13.523438 7.210938 L 13.523438 9.972656 C 13.523438 10.039062 13.546875 10.105469 13.597656 10.152344 C 13.644531 10.199219 13.707031 10.226562 13.777344 10.226562 Z M 13.777344 10.226562 "/>
<path style=" stroke:none;fill-rule:nonzero;fill:rgb(0%,0%,0%);fill-opacity:1;" d="M 6.925781 8.316406 C 6.925781 8.382812 6.953125 8.445312 7 8.492188 C 7.046875 8.539062 7.113281 8.566406 7.179688 8.566406 L 12.816406 8.566406 C 12.910156 8.570312 13 8.523438 13.046875 8.445312 C 13.09375 8.363281 13.09375 8.265625 13.046875 8.1875 C 13 8.105469 12.910156 8.058594 12.816406 8.0625 L 7.179688 8.0625 C 7.113281 8.0625 7.046875 8.089844 7 8.136719 C 6.953125 8.183594 6.925781 8.246094 6.925781 8.316406 Z M 6.925781 8.316406 "/>
<path style=" stroke:none;fill-rule:nonzero;fill:rgb(0%,0%,0%);fill-opacity:1;" d="M 5.855469 0.835938 C 5.714844 0.824219 5.59375 0.925781 5.582031 1.066406 C 5.570312 1.203125 5.675781 1.324219 5.816406 1.335938 L 5.96875 1.347656 L 5.988281 1.347656 C 6.121094 1.347656 6.234375 1.242188 6.238281 1.105469 C 6.246094 0.972656 6.140625 0.859375 6.007812 0.847656 Z M 5.855469 0.835938 "/>
<path style=" stroke:none;fill-rule:nonzero;fill:rgb(0%,0%,0%);fill-opacity:1;" d="M 19.902344 0.0703125 C 19.839844 0.0195312 19.757812 0.00390625 19.679688 0.0234375 C 19.644531 0.0351562 15.882812 0.996094 10.003906 0.996094 C 9.324219 0.996094 8.640625 0.980469 7.964844 0.957031 C 7.824219 0.949219 7.707031 1.058594 7.703125 1.199219 C 7.695312 1.335938 7.804688 1.453125 7.945312 1.457031 C 8.625 1.484375 9.320312 1.496094 10.003906 1.496094 C 14.972656 1.496094 18.457031 0.816406 19.492188 0.585938 L 19.492188 1.550781 C 19.496094 1.765625 19.410156 1.972656 19.257812 2.125 C 19.105469 2.277344 18.898438 2.367188 18.679688 2.367188 L 1.332031 2.367188 C 0.882812 2.367188 0.515625 2 0.515625 1.554688 L 0.507812 0.585938 C 1.035156 0.707031 2.183594 0.9375 3.863281 1.140625 C 3.996094 1.152344 4.117188 1.054688 4.132812 0.921875 C 4.148438 0.785156 4.058594 0.664062 3.921875 0.640625 C 1.652344 0.367188 0.332031 0.0273438 0.320312 0.0273438 C 0.242188 0.00390625 0.160156 0.0234375 0.0976562 0.0703125 C 0.0351562 0.117188 0 0.191406 0 0.269531 L 0.0078125 1.554688 C 0.0078125 2.28125 0.601562 2.867188 1.332031 2.871094 L 18.679688 2.871094 C 19.03125 2.871094 19.367188 2.730469 19.617188 2.484375 C 19.863281 2.238281 20.003906 1.902344 20 1.554688 L 20 0.269531 C 20 0.191406 19.964844 0.117188 19.902344 0.0703125 Z M 19.902344 0.0703125 "/>
<path style=" stroke:none;fill-rule:nonzero;fill:rgb(0%,0%,0%);fill-opacity:1;" d="M 8.765625 19.480469 L 7.152344 19.480469 L 7.152344 17.535156 C 7.148438 17.15625 6.871094 16.832031 6.488281 16.773438 L 6.488281 7.210938 L 7.582031 7.210938 C 7.675781 7.214844 7.761719 7.167969 7.808594 7.089844 C 7.859375 7.007812 7.859375 6.910156 7.808594 6.832031 C 7.761719 6.75 7.675781 6.703125 7.582031 6.707031 L 6.488281 6.707031 L 6.488281 5.582031 C 6.882812 5.535156 7.183594 5.207031 7.183594 4.8125 L 7.183594 4.183594 L 7.796875 4.183594 C 7.890625 4.1875 7.976562 4.140625 8.023438 4.0625 C 8.074219 3.984375 8.074219 3.882812 8.023438 3.804688 C 7.976562 3.726562 7.890625 3.679688 7.796875 3.683594 L 3.085938 3.683594 C 2.933594 3.679688 2.792969 3.601562 2.714844 3.46875 C 2.636719 3.363281 2.492188 3.332031 2.378906 3.398438 C 2.265625 3.464844 2.222656 3.605469 2.277344 3.722656 C 2.445312 4.007812 2.753906 4.183594 3.085938 4.183594 L 3.460938 4.183594 L 3.460938 4.8125 C 3.464844 5.207031 3.761719 5.535156 4.15625 5.582031 L 4.15625 6.707031 L 2.488281 6.707031 C 2.398438 6.707031 2.3125 6.757812 2.269531 6.835938 C 2.222656 6.914062 2.222656 7.007812 2.269531 7.085938 L 2.753906 7.914062 C 2.996094 8.316406 3.433594 8.566406 3.90625 8.566406 L 4.15625 8.566406 L 4.15625 16.773438 C 3.777344 16.832031 3.496094 17.15625 3.496094 17.535156 L 3.496094 18.863281 C 3.496094 19 3.609375 19.113281 3.75 19.113281 C 3.890625 19.113281 4.003906 19 4.003906 18.863281 L 4.003906 17.535156 C 4.003906 17.386719 4.125 17.265625 4.277344 17.265625 L 6.371094 17.265625 C 6.523438 17.265625 6.644531 17.386719 6.644531 17.535156 L 6.644531 19.480469 L 2.40625 19.480469 C 2.3125 19.476562 2.222656 19.523438 2.175781 19.601562 C 2.128906 19.683594 2.128906 19.78125 2.175781 19.859375 C 2.222656 19.941406 2.3125 19.988281 2.40625 19.984375 L 8.765625 19.984375 C 8.859375 19.988281 8.949219 19.941406 8.996094 19.859375 C 9.042969 19.78125 9.042969 19.683594 8.996094 19.601562 C 8.949219 19.523438 8.859375 19.476562 8.765625 19.480469 Z M 4.664062 11.230469 L 4.664062 5.585938 L 5.980469 5.585938 L 5.980469 16.761719 L 4.664062 16.761719 Z M 3.972656 4.8125 L 3.972656 4.183594 L 6.675781 4.183594 L 6.675781 4.8125 C 6.675781 4.960938 6.554688 5.082031 6.402344 5.082031 L 4.242188 5.082031 C 4.09375 5.082031 3.972656 4.960938 3.972656 4.8125 Z M 3.90625 8.0625 C 3.613281 8.0625 3.34375 7.910156 3.195312 7.65625 L 2.929688 7.210938 L 4.15625 7.210938 L 4.15625 8.0625 Z M 3.90625 8.0625 "/>
<path style=" stroke:none;fill-rule:nonzero;fill:rgb(0%,0%,0%);fill-opacity:1;" d="M 10.394531 19.480469 L 10.132812 19.480469 C 10.039062 19.476562 9.953125 19.523438 9.902344 19.601562 C 9.855469 19.683594 9.855469 19.78125 9.902344 19.859375 C 9.953125 19.941406 10.039062 19.988281 10.132812 19.984375 L 10.394531 19.984375 C 10.53125 19.976562 10.640625 19.867188 10.640625 19.730469 C 10.640625 19.597656 10.53125 19.484375 10.394531 19.480469 Z M 10.394531 19.480469 "/>
<path style=" stroke:none;fill-rule:nonzero;fill:rgb(0%,0%,0%);fill-opacity:1;" d="M 18.839844 19.480469 L 18.597656 19.480469 C 18.464844 19.484375 18.355469 19.597656 18.355469 19.730469 C 18.355469 19.867188 18.464844 19.976562 18.597656 19.984375 L 18.839844 19.984375 C 18.933594 19.988281 19.019531 19.941406 19.070312 19.859375 C 19.117188 19.78125 19.117188 19.683594 19.070312 19.601562 C 19.019531 19.523438 18.933594 19.476562 18.839844 19.480469 Z M 18.839844 19.480469 "/>
<path style=" stroke:none;fill-rule:nonzero;fill:rgb(0%,0%,0%);fill-opacity:1;" d="M 8.765625 5.410156 C 8.628906 5.410156 8.515625 5.523438 8.515625 5.664062 L 8.515625 7.28125 C 8.511719 7.347656 8.539062 7.414062 8.589844 7.460938 C 8.636719 7.507812 8.699219 7.535156 8.765625 7.535156 L 11.242188 7.535156 C 11.3125 7.535156 11.375 7.507812 11.421875 7.460938 C 11.472656 7.414062 11.5 7.347656 11.5 7.28125 L 11.5 3.558594 C 11.5 3.417969 11.382812 3.304688 11.242188 3.304688 L 8.765625 3.304688 C 8.699219 3.304688 8.636719 3.332031 8.589844 3.378906 C 8.539062 3.425781 8.511719 3.492188 8.515625 3.558594 L 8.515625 4.632812 C 8.519531 4.769531 8.632812 4.875 8.769531 4.875 C 8.902344 4.875 9.015625 4.769531 9.023438 4.632812 L 9.023438 3.808594 L 10.992188 3.808594 L 10.992188 7.03125 L 9.023438 7.03125 L 9.023438 5.664062 C 9.023438 5.597656 8.996094 5.53125 8.949219 5.484375 C 8.898438 5.4375 8.835938 5.410156 8.765625 5.410156 Z M 8.765625 5.410156 "/>
</g>
</svg>
