<?xml version="1.0" encoding="UTF-8"?>
<svg xmlns="http://www.w3.org/2000/svg" xmlns:xlink="http://www.w3.org/1999/xlink" width="30pt" height="30pt" viewBox="0 0 30 30" version="1.1">
<g id="surface1">
<path style=" stroke:none;fill-rule:nonzero;fill:rgb(100%,100%,100%);fill-opacity:1;" d="M 10.519531 16.933594 C 7.757812 17.441406 5.109375 15.613281 4.601562 12.851562 C 4.09375 10.089844 5.921875 7.441406 8.679688 6.933594 C 11.441406 6.425781 14.09375 8.253906 14.601562 11.015625 C 15.105469 13.773438 13.28125 16.425781 10.519531 16.933594 Z M 10.519531 16.933594 "/>
<path style=" stroke:none;fill-rule:nonzero;fill:rgb(26.27451%,29.411765%,33.72549%);fill-opacity:1;" d="M 9.59375 17.753906 C 6.789062 17.753906 4.386719 15.746094 3.878906 12.984375 C 3.296875 9.832031 5.394531 6.792969 8.546875 6.210938 C 8.898438 6.148438 9.253906 6.113281 9.605469 6.113281 C 12.410156 6.113281 14.816406 8.117188 15.324219 10.882812 C 15.605469 12.410156 15.273438 13.957031 14.390625 15.238281 C 13.507812 16.515625 12.179688 17.375 10.652344 17.65625 C 10.304688 17.71875 9.949219 17.753906 9.59375 17.753906 Z M 9.605469 7.585938 C 9.339844 7.585938 9.074219 7.609375 8.8125 7.65625 C 6.457031 8.089844 4.890625 10.363281 5.324219 12.71875 C 5.703125 14.785156 7.5 16.28125 9.59375 16.28125 C 9.859375 16.28125 10.125 16.257812 10.386719 16.210938 C 11.527344 16 12.519531 15.359375 13.179688 14.402344 C 13.839844 13.445312 14.085938 12.289062 13.875 11.148438 C 13.496094 9.082031 11.699219 7.585938 9.605469 7.585938 Z M 9.605469 7.585938 "/>
<path style=" stroke:none;fill-rule:nonzero;fill:rgb(67.45098%,82.352941%,38.823529%);fill-opacity:1;" d="M 10.046875 14.367188 C 8.703125 14.613281 7.414062 13.722656 7.167969 12.378906 C 6.921875 11.039062 7.808594 9.746094 9.152344 9.5 C 10.496094 9.253906 11.785156 10.140625 12.035156 11.484375 C 12.28125 12.828125 11.390625 14.121094 10.046875 14.367188 Z M 10.046875 14.367188 "/>
<path style=" stroke:none;fill-rule:nonzero;fill:rgb(26.27451%,29.411765%,33.72549%);fill-opacity:1;" d="M 9.597656 15.144531 C 8.050781 15.144531 6.726562 14.039062 6.445312 12.515625 C 6.125 10.773438 7.28125 9.097656 9.019531 8.777344 C 9.210938 8.742188 9.410156 8.722656 9.601562 8.722656 C 11.152344 8.722656 12.476562 9.828125 12.757812 11.351562 C 13.074219 13.09375 11.917969 14.769531 10.179688 15.089844 C 9.988281 15.125 9.792969 15.144531 9.597656 15.144531 Z M 9.601562 10.195312 C 9.496094 10.195312 9.390625 10.203125 9.285156 10.222656 C 8.34375 10.398438 7.71875 11.304688 7.890625 12.246094 C 8.042969 13.074219 8.761719 13.671875 9.597656 13.671875 C 9.703125 13.671875 9.808594 13.664062 9.914062 13.644531 C 10.855469 13.46875 11.484375 12.5625 11.3125 11.617188 C 11.160156 10.792969 10.441406 10.195312 9.601562 10.195312 Z M 9.601562 10.195312 "/>
<path style=" stroke:none;fill-rule:nonzero;fill:rgb(97.647059%,72.941176%,56.078431%);fill-opacity:1;" d="M 8.691406 13.839844 C 8.023438 13.960938 7.335938 13.308594 7.167969 12.378906 C 6.996094 11.453125 7.402344 10.597656 8.074219 10.476562 C 8.746094 10.351562 9.429688 11.003906 9.601562 11.933594 C 9.769531 12.863281 9.363281 13.714844 8.691406 13.839844 Z M 8.691406 13.839844 "/>
<path style=" stroke:none;fill-rule:nonzero;fill:rgb(26.27451%,29.411765%,33.72549%);fill-opacity:1;" d="M 8.527344 14.589844 C 7.542969 14.589844 6.664062 13.714844 6.445312 12.511719 C 6.195312 11.164062 6.855469 9.953125 7.941406 9.753906 C 9.027344 9.554688 10.078125 10.476562 10.324219 11.800781 C 10.460938 12.535156 10.324219 13.269531 9.953125 13.808594 C 9.671875 14.210938 9.273438 14.480469 8.824219 14.5625 C 8.726562 14.578125 8.628906 14.589844 8.527344 14.589844 Z M 8.238281 11.195312 C 8.011719 11.234375 7.785156 11.671875 7.890625 12.246094 C 7.996094 12.816406 8.351562 13.15625 8.558594 13.113281 C 8.640625 13.101562 8.703125 13.027344 8.742188 12.972656 C 8.855469 12.804688 8.953125 12.480469 8.878906 12.066406 C 8.773438 11.507812 8.433594 11.195312 8.238281 11.195312 Z M 8.238281 11.195312 "/>
<path style=" stroke:none;fill-rule:nonzero;fill:rgb(26.27451%,29.411765%,33.72549%);fill-opacity:1;" d="M 29.160156 23.796875 C 29.089844 23.796875 29.019531 23.789062 28.949219 23.765625 L 0.675781 15.246094 C 0.285156 15.128906 0.0664062 14.71875 0.183594 14.328125 C 0.300781 13.941406 0.710938 13.71875 1.097656 13.835938 L 29.375 22.359375 C 29.761719 22.476562 29.984375 22.886719 29.867188 23.273438 C 29.769531 23.59375 29.476562 23.796875 29.160156 23.796875 Z M 29.160156 23.796875 "/>
<path style=" stroke:none;fill-rule:nonzero;fill:rgb(26.27451%,29.411765%,33.72549%);fill-opacity:1;" d="M 26.882812 27.324219 C 26.65625 27.324219 26.429688 27.21875 26.285156 27.019531 L 9.558594 3.839844 C 9.320312 3.511719 9.398438 3.050781 9.726562 2.8125 C 10.054688 2.574219 10.515625 2.648438 10.753906 2.980469 L 27.480469 26.160156 C 27.71875 26.488281 27.640625 26.949219 27.3125 27.1875 C 27.183594 27.28125 27.03125 27.324219 26.882812 27.324219 Z M 26.882812 27.324219 "/>
</g>
</svg>
