<?xml version="1.0" encoding="UTF-8"?>
<svg xmlns="http://www.w3.org/2000/svg" xmlns:xlink="http://www.w3.org/1999/xlink" width="20pt" height="20pt" viewBox="0 0 20 20" version="1.1">
<g id="surface1">
<path style=" stroke:none;fill-rule:nonzero;fill:rgb(0%,0%,0%);fill-opacity:1;" d="M 5.832031 10.832031 C 7.210938 10.832031 8.332031 9.710938 8.332031 8.332031 C 8.332031 6.953125 7.210938 5.832031 5.832031 5.832031 C 4.453125 5.832031 3.332031 6.953125 3.332031 8.332031 C 3.332031 9.710938 4.453125 10.832031 5.832031 10.832031 Z M 15.832031 5.832031 L 9.167969 5.832031 L 9.167969 11.667969 L 2.5 11.667969 L 2.5 4.167969 L 0.832031 4.167969 L 0.832031 16.667969 L 2.5 16.667969 L 2.5 14.167969 L 17.5 14.167969 L 17.5 16.667969 L 19.167969 16.667969 L 19.167969 9.167969 C 19.167969 7.324219 17.675781 5.832031 15.832031 5.832031 Z M 15.832031 5.832031 "/>
</g>
</svg>
