<?xml version="1.0" encoding="UTF-8"?>
<svg xmlns="http://www.w3.org/2000/svg" xmlns:xlink="http://www.w3.org/1999/xlink" width="30pt" height="30pt" viewBox="0 0 30 30" version="1.1">
<g id="surface1">
<path style=" stroke:none;fill-rule:nonzero;fill:rgb(0%,0%,0%);fill-opacity:1;" d="M 13.371094 7.652344 C 13.28125 7.710938 13.242188 7.796875 13.242188 7.929688 C 13.242188 8.03125 13.492188 8.707031 13.828125 9.484375 C 14.148438 10.242188 14.40625 10.867188 14.398438 10.875 C 14.390625 10.886719 13.976562 10.289062 13.484375 9.550781 C 12.984375 8.8125 12.539062 8.191406 12.492188 8.171875 C 12.21875 8.070312 11.953125 8.234375 11.953125 8.519531 C 11.953125 8.632812 12.351562 9.269531 13.273438 10.632812 L 14.589844 12.585938 L 14.21875 12.46875 C 13.96875 12.386719 13.628906 12.339844 13.117188 12.320312 C 12.171875 12.28125 11.679688 12.382812 10.839844 12.785156 C 10.300781 13.042969 10.164062 13.140625 9.695312 13.617188 C 9.25 14.054688 9.109375 14.25 8.871094 14.71875 L 8.585938 15.292969 L 8.023438 15.292969 C 7.203125 15.292969 7.136719 15.40625 7.417969 16.300781 C 7.976562 18.058594 9.117188 19.558594 10.679688 20.566406 C 10.960938 20.753906 11.359375 20.976562 11.570312 21.070312 L 11.945312 21.242188 L 11.953125 21.75 C 11.953125 22.207031 11.964844 22.265625 12.082031 22.347656 C 12.199219 22.429688 12.574219 22.441406 15 22.441406 C 17.425781 22.441406 17.800781 22.429688 17.917969 22.347656 C 18.035156 22.265625 18.046875 22.207031 18.046875 21.75 L 18.054688 21.242188 L 18.429688 21.070312 C 18.640625 20.976562 19.039062 20.753906 19.320312 20.566406 C 20.882812 19.558594 22.023438 18.058594 22.582031 16.300781 C 22.886719 15.339844 22.839844 15.292969 21.640625 15.292969 L 20.757812 15.292969 L 20.265625 14.800781 C 19.492188 14.03125 18.738281 13.710938 17.695312 13.710938 C 17.421875 13.710938 17.050781 13.746094 16.863281 13.792969 L 16.535156 13.867188 L 15.234375 10.816406 C 14.492188 9.0625 13.886719 7.722656 13.816406 7.65625 C 13.671875 7.535156 13.539062 7.53125 13.371094 7.652344 Z M 14.132812 13.253906 C 14.984375 13.570312 15.703125 14.164062 16.132812 14.890625 L 16.347656 15.265625 L 15.898438 15.28125 C 15.515625 15.292969 15.4375 15.28125 15.390625 15.195312 C 15.28125 14.976562 14.59375 14.359375 14.320312 14.21875 C 13.371094 13.742188 12.179688 13.769531 11.335938 14.304688 C 10.984375 14.519531 10.640625 14.84375 10.484375 15.101562 C 10.367188 15.292969 10.359375 15.292969 9.898438 15.292969 L 9.429688 15.292969 L 9.59375 14.984375 C 9.828125 14.53125 10.664062 13.722656 11.144531 13.484375 C 11.828125 13.140625 12.179688 13.066406 13.007812 13.089844 C 13.617188 13.101562 13.804688 13.132812 14.132812 13.253906 Z M 18.53125 14.589844 C 18.875 14.695312 19.578125 15.101562 19.65625 15.242188 C 19.679688 15.269531 19.195312 15.292969 18.4375 15.292969 L 17.191406 15.292969 L 17.054688 14.96875 C 16.984375 14.796875 16.921875 14.632812 16.929688 14.609375 C 16.929688 14.445312 18.015625 14.429688 18.53125 14.589844 Z M 13.839844 14.851562 C 14.023438 14.941406 14.234375 15.078125 14.304688 15.152344 L 14.429688 15.292969 L 12.898438 15.292969 C 11.195312 15.292969 11.191406 15.292969 11.765625 14.960938 C 12.21875 14.695312 12.414062 14.648438 12.976562 14.664062 C 13.417969 14.683594 13.5625 14.710938 13.839844 14.851562 Z M 14.601562 17.167969 L 14.585938 18.28125 L 14.730469 18.429688 C 14.898438 18.597656 15.035156 18.609375 15.222656 18.480469 C 15.34375 18.390625 15.351562 18.363281 15.351562 17.21875 L 15.351562 16.054688 L 16.523438 16.054688 L 16.523438 16.679688 C 16.523438 17.378906 16.582031 17.519531 16.886719 17.519531 C 17.210938 17.519531 17.285156 17.359375 17.285156 16.671875 L 17.285156 16.054688 L 21.851562 16.054688 L 21.738281 16.375 C 21.5625 16.890625 21.125 17.6875 20.71875 18.226562 C 20.023438 19.15625 19.183594 19.828125 18.058594 20.375 C 17.695312 20.546875 17.375 20.742188 17.34375 20.800781 C 17.308594 20.859375 17.285156 21.082031 17.285156 21.292969 L 17.285156 21.679688 L 12.714844 21.679688 L 12.714844 21.292969 C 12.714844 21.082031 12.691406 20.859375 12.65625 20.800781 C 12.625 20.742188 12.304688 20.546875 11.941406 20.375 C 10.816406 19.828125 9.976562 19.15625 9.28125 18.226562 C 8.875 17.6875 8.4375 16.890625 8.261719 16.375 L 8.148438 16.054688 L 14.617188 16.054688 Z M 14.601562 17.167969 "/>
</g>
</svg>
