<?xml version="1.0" ?><!DOCTYPE svg  PUBLIC '-//W3C//DTD SVG 20010904//EN'  'http://www.w3.org/TR/2001/REC-SVG-20010904/DTD/svg10.dtd'><svg height="512.000000pt" preserveAspectRatio="xMidYMid meet" version="1.0" viewBox="0 0 512.000000 512.000000" width="512.000000pt" xmlns="http://www.w3.org/2000/svg"><g fill="#000000" stroke="none" transform="translate(0.000000,512.000000) scale(0.100000,-0.100000)"><path d="M2282 3814 c-15 -10 -22 -25 -22 -47 0 -18 43 -133 100 -266 55 -129 99 -236 97 -237 -1 -2 -72 100 -156 226 -85 126 -161 232 -169 235 -47 18 -92 -10 -92 -59 0 -19 68 -128 225 -361 l225 -333 -63 20 c-43 14 -101 22 -188 25 -162 7 -246 -10 -389 -79 -92 -44 -115 -61 -195 -142 -76 -75 -100 -108 -141 -188 l-49 -98 -96 0 c-140 0 -151 -19 -103 -172 95 -300 290 -556 557 -728 48 -32 116 -70 152 -86 l64 -29 1 -87 c0 -78 2 -88 22 -102 20 -14 84 -16 498 -16 414 0 478 2 498 16 20 14 22 24 22 102 l1 87 64 29 c36 16 104 54 152 86 267 172 462 428 557 728 52 164 44 172 -161 172 l-150 0 -84 84 c-132 131 -261 186 -439 186 -47 0 -110 -6 -142 -14 l-56 -13 -222 521 c-127 299 -230 528 -242 539 -25 21 -47 22 -76 1z m130 -956 c145 -54 268 -155 341 -279 l37 -64 -77 -3 c-65 -2 -78 0 -86 15 -19 37 -136 142 -183 166 -162 82 -365 77 -509 -14 -60 -37 -119 -92 -146 -136 -20 -33 -21 -33 -100 -33 l-80 0 28 53 c40 77 183 215 265 256 117 58 177 71 318 67 104 -2 136 -7 192 -28z m751 -228 c58 -18 178 -87 192 -111 4 -5 -79 -9 -208 -9 l-213 0 -23 55 c-12 30 -23 58 -22 62 0 28 186 30 274 3z m-801 -45 c31 -15 67 -38 79 -51 l22 -24 -262 0 c-290 0 -291 0 -193 57 77 45 111 53 207 50 75 -3 100 -8 147 -32z m130 -395 l-3 -190 25 -25 c29 -29 52 -31 84 -9 21 15 22 20 22 215 l0 199 100 0 100 0 0 -107 c0 -119 10 -143 62 -143 55 0 68 27 68 145 l0 105 389 0 390 0 -19 -55 c-30 -88 -105 -224 -174 -316 -119 -158 -262 -273 -454 -366 -62 -30 -117 -63 -122 -73 -6 -10 -10 -48 -10 -84 l0 -66 -390 0 -390 0 0 66 c0 36 -4 74 -10 84 -5 10 -60 43 -122 73 -192 93 -335 208 -454 366 -69 92 -144 228 -174 316 l-19 55 552 0 552 0 -3 -190z"/></g></svg>