<?xml version="1.0" encoding="UTF-8"?>
<svg xmlns="http://www.w3.org/2000/svg" xmlns:xlink="http://www.w3.org/1999/xlink" width="20pt" height="20pt" viewBox="0 0 20 20" version="1.1">
<g id="surface1">
<path style=" stroke:none;fill-rule:nonzero;fill:rgb(0%,0%,0%);fill-opacity:1;" d="M 17.5 1.785156 C 17.828125 2.171875 17.871094 2.722656 17.632812 3.4375 C 17.394531 4.152344 16.992188 4.792969 16.429688 5.355469 L 14.632812 7.152344 L 16.417969 14.921875 C 16.453125 15.0625 16.410156 15.1875 16.285156 15.289062 L 14.855469 16.363281 C 14.804688 16.40625 14.730469 16.429688 14.644531 16.429688 C 14.613281 16.429688 14.585938 16.425781 14.566406 16.417969 C 14.453125 16.394531 14.375 16.335938 14.332031 16.238281 L 11.214844 10.570312 L 8.324219 13.460938 L 8.917969 15.625 C 8.953125 15.75 8.925781 15.867188 8.828125 15.972656 L 7.757812 17.042969 C 7.691406 17.109375 7.605469 17.144531 7.5 17.144531 L 7.476562 17.144531 C 7.367188 17.128906 7.277344 17.078125 7.210938 16.996094 L 5.101562 14.183594 L 2.289062 12.074219 C 2.207031 12.023438 2.15625 11.9375 2.144531 11.820312 C 2.136719 11.722656 2.167969 11.628906 2.242188 11.539062 L 3.316406 10.457031 C 3.382812 10.390625 3.46875 10.355469 3.570312 10.355469 C 3.617188 10.355469 3.644531 10.359375 3.660156 10.367188 L 5.824219 10.960938 L 8.714844 8.070312 L 3.046875 4.957031 C 2.941406 4.894531 2.878906 4.804688 2.855469 4.6875 C 2.84375 4.570312 2.875 4.46875 2.957031 4.386719 L 4.386719 2.957031 C 4.492188 2.859375 4.601562 2.832031 4.722656 2.867188 L 12.144531 4.644531 L 13.929688 2.855469 C 14.492188 2.292969 15.132812 1.890625 15.847656 1.652344 C 16.5625 1.414062 17.113281 1.457031 17.5 1.785156 Z M 17.5 1.785156 "/>
</g>
</svg>
