<?xml version="1.0" encoding="UTF-8"?>
<svg xmlns="http://www.w3.org/2000/svg" xmlns:xlink="http://www.w3.org/1999/xlink" width="20pt" height="20pt" viewBox="0 0 20 20" version="1.1">
<g id="surface1">
<path style=" stroke:none;fill-rule:nonzero;fill:rgb(0%,0%,0%);fill-opacity:1;" d="M 8.300781 3.628906 C 8.582031 3.628906 8.808594 3.402344 8.808594 3.121094 C 8.808594 2.839844 8.582031 2.613281 8.300781 2.613281 C 8.019531 2.613281 7.792969 2.839844 7.792969 3.121094 C 7.792969 3.402344 8.019531 3.628906 8.300781 3.628906 Z M 8.300781 3.628906 "/>
<path style=" stroke:none;fill-rule:nonzero;fill:rgb(0%,0%,0%);fill-opacity:1;" d="M 12.207031 3.117188 C 12.207031 3.398438 11.980469 3.625 11.699219 3.625 C 11.417969 3.625 11.191406 3.398438 11.191406 3.117188 C 11.191406 2.835938 11.417969 2.609375 11.699219 2.609375 C 11.980469 2.609375 12.207031 2.835938 12.207031 3.117188 Z M 12.207031 3.117188 "/>
<path style=" stroke:none;fill-rule:nonzero;fill:rgb(0%,0%,0%);fill-opacity:1;" d="M 5.714844 8.382812 L 5.714844 12.972656 C 5.71875 12.976562 5.722656 12.980469 5.722656 12.984375 C 6.417969 13.339844 13.582031 13.339844 14.277344 12.984375 C 14.28125 12.980469 14.285156 12.976562 14.285156 12.972656 L 14.285156 8.382812 L 14.03125 8.113281 L 14.03125 5.070312 L 14.285156 5.070312 L 14.285156 4.707031 C 13.578125 4.007812 12.167969 3.609375 10.664062 3.519531 C 10.726562 3.464844 10.765625 3.386719 10.765625 3.296875 C 10.765625 3.128906 10.628906 2.996094 10.464844 2.996094 L 9.542969 2.996094 C 9.375 2.996094 9.242188 3.132812 9.242188 3.296875 C 9.242188 3.386719 9.28125 3.464844 9.34375 3.519531 C 7.839844 3.609375 6.425781 4.003906 5.722656 4.707031 L 5.722656 5.070312 L 5.976562 5.070312 L 5.976562 8.113281 Z M 10.261719 5.777344 C 10.261719 5.558594 10.4375 5.382812 10.65625 5.382812 L 13.171875 5.382812 C 13.390625 5.382812 13.566406 5.558594 13.566406 5.777344 L 13.566406 7.417969 C 13.566406 7.636719 13.390625 7.8125 13.171875 7.8125 L 10.65625 7.8125 C 10.4375 7.8125 10.261719 7.636719 10.261719 7.417969 Z M 10.886719 9.65625 C 10.886719 10.144531 10.488281 10.542969 10 10.542969 C 9.511719 10.542969 9.113281 10.144531 9.113281 9.65625 C 9.113281 9.167969 9.511719 8.769531 10 8.769531 C 10.488281 8.769531 10.886719 9.167969 10.886719 9.65625 Z M 6.429688 5.777344 C 6.429688 5.558594 6.605469 5.382812 6.824219 5.382812 L 9.339844 5.382812 C 9.558594 5.382812 9.734375 5.558594 9.734375 5.777344 L 9.734375 7.417969 C 9.734375 7.636719 9.558594 7.8125 9.339844 7.8125 L 6.824219 7.8125 C 6.605469 7.8125 6.429688 7.636719 6.429688 7.417969 Z M 6.429688 5.777344 "/>
<path style=" stroke:none;fill-rule:nonzero;fill:rgb(0%,0%,0%);fill-opacity:1;" d="M 13.058594 13.578125 C 12.246094 13.636719 11.160156 13.671875 10 13.671875 C 9.996094 13.671875 9.996094 13.671875 9.992188 13.671875 C 8.828125 13.671875 7.742188 13.640625 6.933594 13.578125 C 6.320312 13.53125 5.945312 13.480469 5.714844 13.417969 L 5.714844 13.734375 L 6.308594 16.367188 C 6.640625 16.59375 7.21875 16.761719 7.925781 16.878906 L 8.015625 16.878906 L 8.402344 15.359375 C 8.476562 15.0625 8.746094 14.851562 9.054688 14.851562 L 10.945312 14.851562 C 11.253906 14.851562 11.519531 15.058594 11.597656 15.359375 L 11.984375 16.878906 L 12.074219 16.878906 C 12.78125 16.761719 13.363281 16.589844 13.691406 16.367188 L 14.285156 13.734375 L 14.285156 13.417969 C 14.054688 13.480469 13.675781 13.53125 13.058594 13.578125 Z M 13.058594 13.578125 "/>
<path style=" stroke:none;fill-rule:nonzero;fill:rgb(0%,0%,0%);fill-opacity:1;" d="M 8.515625 17.390625 L 11.484375 17.390625 C 11.585938 17.390625 11.65625 17.296875 11.632812 17.199219 L 11.191406 15.460938 C 11.164062 15.347656 11.0625 15.269531 10.945312 15.269531 L 9.054688 15.269531 C 8.9375 15.269531 8.835938 15.347656 8.808594 15.460938 L 8.367188 17.199219 C 8.34375 17.296875 8.417969 17.390625 8.515625 17.390625 Z M 8.515625 17.390625 "/>
</g>
</svg>
